<svg id="Layer_1" data-name="Layer 1" xmlns="http://www.w3.org/2000/svg" viewBox="0 0 1002 459.58"><defs><style>.cls-1{fill:#ff8189;}.cls-2{fill:#006072;}</style></defs><title>Untitled-1</title><path class="cls-1" d="M366.94,191.63c0-45,36.17-78.63,83.77-78.63,47.83,0,84,33.6,84,78.63,0,44.8-36.17,78.64-84,78.64C403.11,270.27,366.94,236.67,366.94,191.63Zm126,0c0-24.5-18.67-41.77-42.23-41.77-23.34,0-42,17.27-42,41.77s18.66,41.77,42,41.77C474.27,233.4,492.94,216.13,492.94,191.63Z" transform="translate(-13 -15.17)"/><path class="cls-1" d="M550.14,191.63c0-45,36.17-78.63,83.77-78.63,47.83,0,84,33.6,84,78.63,0,44.8-36.17,78.64-84,78.64C586.31,270.27,550.14,236.67,550.14,191.63Zm126,0c0-24.5-18.66-41.77-42.23-41.77-23.34,0-42,17.27-42,41.77s18.66,41.77,42,41.77C657.48,233.4,676.14,216.13,676.14,191.63Z" transform="translate(-13 -15.17)"/><path class="cls-1" d="M769,256.5V149.16H733.11c-7,0-11-4-11-11V126.76c0-7.23,4-11,11-11H846c7,0,11,3.73,11,11V138.2c0,7-4,11-11,11H810.11V256.5c0,7-4,11-11,11H780C773,267.47,769,263.5,769,256.5Z" transform="translate(-13 -15.17)"/><path class="cls-1" d="M875.47,256.5V126.76c0-7,4-11,11-11h19.14c7,0,11,4,11,11v48.3h57.64v-48.3c0-7,3.73-11,10.73-11h19.37c7,0,10.73,4,10.73,11V256.5c0,7-3.73,11-10.73,11H984.9c-7,0-10.73-4-10.73-11V208.43H916.53V256.5c0,7-4,11-11,11H886.43C879.43,267.47,875.47,263.5,875.47,256.5Z" transform="translate(-13 -15.17)"/><path class="cls-2" d="M304,85.42V29.08H285a2.68,2.68,0,0,1-3-2.88V24.66a2.68,2.68,0,0,1,3-2.87h46.28c1.95,0,3.08,1,3.08,2.87V26.2c0,1.85-1.13,2.88-3.08,2.88h-19V85.42c0,1.84-.93,3.08-2.77,3.08h-2.67A2.76,2.76,0,0,1,304,85.42Z" transform="translate(-13 -15.17)"/><path class="cls-2" d="M389.45,57.3V85.52a2.7,2.7,0,0,1-2.77,3h-2.57a2.7,2.7,0,0,1-2.77-3V58c0-9-5.54-14.88-14.26-14.88S352,49,352,58v27.5a2.7,2.7,0,0,1-2.77,3h-2.57a2.7,2.7,0,0,1-2.77-3V18.82c0-1.55.92-2.47,2.77-3l2.16-.52c2.25-.61,3.18.62,3.18,2.77V43.14c3.7-4.52,9.34-7.19,16.52-7.19C381.45,36,389.45,44.78,389.45,57.3Z" transform="translate(-13 -15.17)"/><path class="cls-2" d="M428.24,82.65A24.26,24.26,0,0,0,444,76.8c1.85-1.54,3.19-1.34,4.42,0l1,.92c1.54,1.64.82,3.08-.2,4.1-6.16,6-14.89,7.91-21,7.91C414.18,89.73,401,80,401,63.05c0-15.5,11.09-27.1,25.87-27.1a25,25,0,0,1,17.85,6.88,26.25,26.25,0,0,1,7.7,19A3.24,3.24,0,0,1,449,65.1H409.36C410.28,76.39,418.9,82.65,428.24,82.65ZM409.46,58.32h34.69a18.1,18.1,0,0,0-4.73-10.26c-3-3.28-7.28-5-12.51-5C417.57,43,410.79,49,409.46,58.32Z" transform="translate(-13 -15.17)"/><path class="cls-2" d="M322.3,414.8V303.38c0-3.59,2.07-5.67,5.66-5.67h68c3.59,0,5.66,1.89,5.66,5.29v2.83c0,3.4-2.07,5.29-5.66,5.29H337.59v41h43.82c3.4,0,5.47,1.89,5.47,5.29v2.83c0,3.4-2.07,5.1-5.47,5.1H337.59V414.8c0,3.4-1.88,5.66-5.28,5.66h-4.73C324.19,420.46,322.3,418.2,322.3,414.8Z" transform="translate(-13 -15.17)"/><path class="cls-2" d="M503.8,330.38V415c0,3.21-1.89,5.47-5.1,5.47h-4.34c-3.21,0-5.1-2.26-5.1-5.47v-7.37a44.71,44.71,0,0,1-34.18,15.11c-28.33,0-47.78-22.1-47.78-49.48,0-27.57,19.45-49.48,47.78-49.48a46.93,46.93,0,0,1,34.18,14.17v-7.56c0-3.21,1.89-5.29,5.1-5.29h4.34C501.91,325.09,503.8,327.17,503.8,330.38Zm-13.41,42.87c0-24.17-15.67-36.07-33.8-36.07-21,0-34.19,16.43-34.19,36.07s13.22,36.07,34.19,36.07C474.9,409.32,490.39,397.05,490.39,373.25Z" transform="translate(-13 -15.17)"/><path class="cls-2" d="M528.94,296a11.71,11.71,0,1,1,23.41,0,11.71,11.71,0,1,1-23.41,0Zm4.15,109.72V330.57c0-3.4,1.89-5.48,5.1-5.48h4.72c3.21,0,5.1,2.08,5.1,5.48v75.35c0,2.46,1,3.78,3,3.78a10.45,10.45,0,0,0,4.16-1.14c3-1.32,4.91,0,6.23,2.84l.75,1.7c1.52,3,.76,5.1-1.32,6.61-3.77,2.45-8.68,3-11.89,3C539.7,422.73,533.09,416.87,533.09,405.73Z" transform="translate(-13 -15.17)"/><path class="cls-2" d="M635.46,331.7l-.76,3c-1.13,3.78-4,4.16-6.8,3.4a20.37,20.37,0,0,0-6.61-1.13c-14,0-22.28,12.47-22.28,29.46V415c0,3.21-1.7,5.47-5.1,5.47h-4.72c-3.21,0-5.1-2.26-5.1-5.47v-74.6c0-2.27-.94-3.59-3-3.59a11.4,11.4,0,0,0-4.35,1.14c-2.83,1.32-4.91.18-6.23-2.65l-.56-1.89c-1.33-3-.76-5.28,1.51-6.61,3.59-2.45,8.31-3,11.52-3,8.31,0,14.35,4.72,15.1,14.54,4.92-8.87,13.22-14.54,24.74-14.54a37.74,37.74,0,0,1,9.64,1.13C634.89,325.66,636.78,327.17,635.46,331.7Z" transform="translate(-13 -15.17)"/><path class="cls-2" d="M734.8,330.57v81.77c0,30.78-21,44-45.32,44-16.62,0-27.76-6.42-36.64-16.43-2.46-2.83-2.64-5.1.57-7.74l1.7-1.7c2.07-1.89,4.53-2.45,7.36.76,6.8,7.36,13.79,12.27,27,12.27,18.13,0,31-9.63,31-30.21v-13.6c-6.42,8.12-16.24,13-29.46,13-22.48,0-37.21-15.67-37.21-39.09V340.39c0-2.27-.94-3.59-3.21-3.59a12.27,12.27,0,0,0-4.34,1.14c-2.83,1.32-4.72.18-6-2.65l-.57-1.89c-1.51-2.83-.94-5.1,1.32-6.42,4-2.64,9.07-3.21,12.09-3.21,9.44,0,15.48,6.23,15.48,17.19v32.29c0,15.67,10,26.06,25.12,26.06,16,0,26.25-10.57,26.25-27.38V330.57c0-3.4,1.89-5.48,5.1-5.48h4.91C733.1,325.09,734.8,327.17,734.8,330.57Z" transform="translate(-13 -15.17)"/><path class="cls-1" d="M357.62,209.57c-7-22.48-26-30.82-43.29-31.75,10.47-10.38,14.89-24.35,10.23-39.35-8-25.73-34.52-36.12-67.74-25.79a74,74,0,0,0-45,39.22c-2.2-7.34-3.87-11.62-.52-16.55,6.35-9.34,16.6-15.28,22.78-24.62,1.73-2.76,6.85-18.06,9.75-17.06a9.44,9.44,0,0,0,9.91-2.88c2-2.29,2.46-6.48,5.73-7.45,2.94-.88,5.83,1.47,8.86,1,11.41-2,15.54-25.89,4.62-32.7-3.48,10.83-10.43,9.19-13.41,1.76a18.21,18.21,0,0,0-21.44-10.88c-9.76,2.37-7,23-9.29,23.39-11.28-11.92-35.72-17.36-52.4-4.48-5.53,4.26-23.62,19.23-13.18,26.69,2,1.4.52,5.59-.86,7.27-2.28,1.34-5.69-1.57-6.13-2.88.38,1.12-.59,3.84,3.47,5.4a30.56,30.56,0,0,1-6,4.39c-4.24,2.19,1.77,5.84,1.91,8.42.08,1.62-1.72,2.56-1.83,3.9s1.42,2.47,2.26,3.34c-.51-.51-1.66,1-1.8,1.3-.79,1.57.55,1.82,1.19,3s-.41,1.92-.92,3c-.7,1.38-1.3,2.73-.89,4.28,2,7.65,6.79,6.15,13.41,6.36,2.87.09,5.73.25,8.6.43,4.72.28,10.72,6.9,12.55,11.31-4.11,8.18-7.12,11.32-13.2,18.41-13,2.74-16.74,3.89-32.27-.71,0,0-13.6-9.34-22.4-13.71-12.83-6.36-24.69-13.94-33.15-14.9-5.75-.66-14,2.52-19.77,2.51-10.75,0-11.05,1.8-17.48,4.48.42,1.91,2.9,2.72,7,.57-2.74,5.39-3.36,6.15-3.12,7,.29,1,.81,1.22,1.39,1L28.27,176.17l-3.21-9.79-2.17,8.73-6.05-1.66,4.69,4.42L13,180l6.89,1.17-5.37,7.86,7.41-5.44L23.7,193l2.3-9.6,8.82,7.7L29,180.82l10.18,1.47-9.36-5.06,30.31-24.61a.79.79,0,0,0-.06.22c-.74,4,7-.13,10.56-.71,3.9-.65,8.34,3.33,14-1.61,6.57-3.4,3.36-4.87,19.82,11.37,6.48,6.39,13.42,12.82,21.22,17.28,6.08,3.49,18.39,6.26,25.43,7.18,2.42.31,4.65.53,6.76.68-4.5,6.25-6.74,11.8-3.11,18.69-.87.91-12.84,12.86-16.64,16.21-6,5.32-12,10.74-17.76,16.34-2.64,2.56-7.46,8.94-10.78,6.8a18.63,18.63,0,0,1-2.42-2.2c-3.46-3.25-11.09-7.23-16-7.64-.93-.08-6.71.75-7,1.79-.45,1.7,6.9,1.95,7.51,2.31-12.67,1.1-14.29,10.11-8.07,9.45s8.35-4,15.08,3.06c1.1,1.16,3.73,3.3,3.1,5.16-1,2.93-9.63,2.09-7.84,3.92.62.63,3.48,1,4.19.93,5-.71,11.28,2.67,17.78-5.56,41-26.07,42-25.73,49.59-36.82,11.14,13.09,17.33,24.71,21.4,42.37a17.65,17.65,0,0,1-11.23,6c-15.19,1.67-19.77.28-30.27,15.08,3.85.2,5.22,1.27,5.35,2.81-15,5.61-25.48,12.7-28.61,20.7-2.26,5.78,5.16,18.67,14.62,32.49-8.19,26.78-18.16,42.77-31.52,72-1,2.13-2,4.23-3.13,6.34-1.12-.45-23,53.12-15.21,57.29,5.22,2.78,32.41-30.73,32.32-46.7,0-3-2.4-5.06-1.68-8,1.3-5.3,5.38-8.78,8.88-12.67,10.9-12.13,22.08-25.57,30.42-40.21A127.52,127.52,0,0,1,166,381.28c7.1,14.11,15.17,27.88,19.08,43.33.86,3.38,7,19.14,12.27,18,2.65-.59,4.32-6.46,3.54-19.93,0-7.8-2-25.34-9-31.73-2.05-1.89-4.09-1-6.14-2.95-11.64-11.18-1.2-26.69-17.84-50.14,1.14-5.39,2.68-12,4.62-16.76a46,46,0,0,1,6.59-2.73c5.38-1.49,11.72,0,15.21,4.36s3.28,11.51-1,15.08c13.58,5.19,14.3-1.64,16.32-4.38,6.29-8.53,28.58,4.1,22.05,14.65,16.59-3.74,19.66-14.27,18-20.35-.53-1.91-1.56-3.8-1.26-5.76.48-3.11,4.17-4.77,7.28-4.41s5.88,2.1,8.76,3.35c4.09,1.76,10.36,3.39,14.82,2.28,1.56-.39,10.55-8.81,7.29-9.71-8.11-2.24-13-10.61-15.05-18.75-1.53-6-2-12.3-3.37-18.34a73.83,73.83,0,0,0,39.13-1.28l5-1.56C348,262.42,366.31,237.56,357.62,209.57ZM62,151.07l1.78-1.44L62.23,146l-5,4.49c1.33-1.66,1.79-3.54,3.25-4.76s6.69-.35,7.61,1.93C68.8,149.56,65.69,149.41,62,151.07Zm195.87-3.92,2.06-.64c12-3.73,21.52.43,24.86,11.18,3.26,10.49-2.23,19.32-14.22,23.05l-20,6.21-5-16.6A18.64,18.64,0,0,1,257.87,147.15ZM295.43,244l-7.63,2.37a18.06,18.06,0,0,1-22.64-12L259,214.18l25.5-7.92c13.48-4.19,24.8.51,28.3,11.75C316.41,229.5,309.92,239.46,295.43,244Z" transform="translate(-13 -15.17)"/></svg>