<svg id="Layer_1" data-name="Layer 1" xmlns="http://www.w3.org/2000/svg" width="600" viewBox="0 0 500 230">
  <defs>
    <style>
      .cls-1{fill:#ff8189}.cls-2{fill:#006072}
    </style>
  </defs>
  <path class="cls-1" d="M176.62 88.35c0-22.48 18-39.24 41.8-39.24s41.91 16.76 41.91 39.24-18 39.24-41.91 39.24-41.8-16.77-41.8-39.24zm62.87 0c0-12.23-9.31-20.84-21.07-20.84s-21 8.61-21 20.84 9.31 20.84 21 20.84 21.07-8.62 21.07-20.84zM268 88.35c0-22.48 18.05-39.24 41.8-39.24s41.92 16.76 41.92 39.24-18.05 39.24-41.92 39.24S268 110.82 268 88.35zm62.88 0c0-12.23-9.32-20.84-21.08-20.84s-20.95 8.61-20.95 20.84 9.31 20.84 20.95 20.84 21.11-8.62 21.11-20.84zM377.27 120.72V67.16h-17.93c-3.5 0-5.48-2-5.48-5.48V56c0-3.61 2-5.47 5.48-5.47h56.35c3.49 0 5.47 1.86 5.47 5.47v5.7c0 3.5-2 5.48-5.47 5.48h-17.93v53.56c0 3.49-2 5.47-5.47 5.47h-9.55c-3.49-.02-5.47-2-5.47-5.49zM430.37 120.72V56c0-3.5 2-5.47 5.47-5.47h9.55c3.5 0 5.47 2 5.47 5.47v24.1h28.76V56c0-3.5 1.87-5.47 5.36-5.47h9.66c3.5 0 5.36 2 5.36 5.47v64.74c0 3.49-1.86 5.47-5.36 5.47H485c-3.49 0-5.36-2-5.36-5.47v-24h-28.78v24c0 3.49-2 5.47-5.47 5.47h-9.55c-3.49-.02-5.47-2-5.47-5.49z"/>
  <path class="cls-2" d="M145.19 35.35V7.23h-9.47a1.33 1.33 0 01-1.49-1.43V5a1.33 1.33 0 011.49-1.43h23.09A1.35 1.35 0 01160.35 5v.8a1.35 1.35 0 01-1.54 1.43h-9.47v28.12c0 .92-.46 1.53-1.38 1.53h-1.33a1.37 1.37 0 01-1.44-1.53zM187.85 21.31V35.4a1.34 1.34 0 01-1.39 1.48h-1.27a1.34 1.34 0 01-1.39-1.48V21.67c0-4.5-2.76-7.42-7.12-7.42s-7.52 2.92-7.52 7.42V35.4a1.35 1.35 0 01-1.39 1.48h-1.28a1.34 1.34 0 01-1.38-1.48V2.11c0-.77.46-1.23 1.38-1.48l1.08-.26c1.12-.31 1.59.31 1.59 1.38v12.5a10.22 10.22 0 018.24-3.59c6.45 0 10.45 4.41 10.45 10.65zM207.2 34a12.07 12.07 0 007.89-3c.92-.76 1.59-.66 2.2 0l.51.46a1.32 1.32 0 01-.1 2 15.53 15.53 0 01-10.5 4c-7 0-13.57-4.87-13.57-13.32 0-7.73 5.54-13.52 12.91-13.52a12.51 12.51 0 018.91 3.43 13.11 13.11 0 013.84 9.48 1.62 1.62 0 01-1.74 1.64h-19.77A9.19 9.19 0 00207.2 34zm-9.37-12.13h17.31a8.93 8.93 0 00-2.35-5.12 8.14 8.14 0 00-6.25-2.51 8.44 8.44 0 00-8.71 7.59zM154.34 199.71v-55.6a2.58 2.58 0 012.83-2.83h33.92c1.79 0 2.83.94 2.83 2.64v1.41c0 1.7-1 2.64-2.83 2.64H162v20.45h21.87a2.46 2.46 0 012.73 2.64v1.41c0 1.7-1 2.55-2.73 2.55H162v24.69a2.52 2.52 0 01-2.64 2.82H157a2.52 2.52 0 01-2.66-2.82zM244.91 157.58v42.22a2.47 2.47 0 01-2.54 2.73h-2.17a2.48 2.48 0 01-2.55-2.73v-3.67a22.32 22.32 0 01-17.05 7.53c-14.14 0-23.85-11-23.85-24.69s9.71-24.68 23.85-24.68a23.42 23.42 0 0117.05 7.06v-3.77a2.41 2.41 0 012.55-2.64h2.17a2.4 2.4 0 012.54 2.64zM238.22 179c0-12.06-7.82-18-16.87-18-10.46 0-17.06 8.19-17.06 18s6.6 18 17.06 18c9.14 0 16.87-6.15 16.87-18zM257.45 140.43a5.85 5.85 0 115.85 5.85 5.87 5.87 0 01-5.85-5.85zm2.08 54.75v-37.5a2.43 2.43 0 012.54-2.74h2.36a2.43 2.43 0 012.54 2.74v37.6c0 1.22.47 1.88 1.51 1.88a5.27 5.27 0 002.07-.56c1.51-.66 2.45 0 3.11 1.41l.38.85a2.33 2.33 0 01-.66 3.3 11.41 11.41 0 01-5.94 1.5c-4.61 0-7.91-2.92-7.91-8.48zM310.61 158.24l-.38 1.51c-.57 1.89-2 2.07-3.39 1.7a10.05 10.05 0 00-3.3-.57c-7 0-11.12 6.22-11.12 14.7v24.22a2.43 2.43 0 01-2.54 2.73h-2.36a2.47 2.47 0 01-2.52-2.73v-37.22c0-1.13-.48-1.79-1.51-1.79a5.71 5.71 0 00-2.17.56c-1.41.66-2.45.1-3.11-1.32l-.28-.94c-.66-1.51-.38-2.64.75-3.3a10.57 10.57 0 015.75-1.5c4.15 0 7.16 2.35 7.54 7.25a13.46 13.46 0 0112.34-7.25 18.58 18.58 0 014.81.56c1.2.38 2.15 1.15 1.49 3.39zM360.18 157.68v40.8c0 15.36-10.46 22-22.62 22a22.91 22.91 0 01-18.28-8.2c-1.22-1.41-1.32-2.54.28-3.86l.85-.85c1-.94 2.26-1.23 3.68.38 3.39 3.67 6.88 6.12 13.47 6.12C346.61 214 353 209.22 353 199v-6.78c-3.21 4.05-8.11 6.5-14.7 6.5-11.22 0-18.57-7.82-18.57-19.51v-16.63c0-1.13-.47-1.79-1.6-1.79a6.28 6.28 0 00-2.17.56c-1.41.66-2.35.1-3-1.32l-.29-.94c-.75-1.41-.47-2.54.66-3.2a11.38 11.38 0 016-1.6c4.71 0 7.72 3.1 7.72 8.57V179c0 7.83 5 13 12.54 13 8 0 13.1-5.28 13.1-13.66v-20.66a2.43 2.43 0 012.54-2.74h2.45c1.65 0 2.5 1.06 2.5 2.74z"/>
  <path class="cls-1" d="M172 97.3c-3.49-11.22-13-15.38-21.61-15.84 5.23-5.18 7.44-12.16 5.11-19.64-4-12.84-17.22-18-33.8-12.87a36.93 36.93 0 00-22.51 19.57c-1.1-3.66-1.93-5.8-.26-8.26 3.17-4.66 8.29-7.62 11.37-12.28.86-1.38 3.42-9 4.86-8.51a4.75 4.75 0 005-1.44c1-1.15 1.23-3.24 2.86-3.72 1.47-.44 2.91.73 4.42.47 5.69-1 7.75-12.92 2.31-16.31-1.74 5.4-5.21 4.58-6.7.87a9.07 9.07 0 00-10.69-5.42c-4.87 1.18-3.5 11.45-4.64 11.67-5.63-5.95-17.83-8.67-26.15-2.24C78.76 25.48 69.73 33 75 36.67c1 .7.26 2.79-.43 3.63-1.14.67-2.84-.79-3.06-1.44.19.56-.3 1.91 1.73 2.69a14.53 14.53 0 01-3 2.19c-2.11 1.1.89 2.92 1 4.21 0 .81-.86 1.27-.91 1.94s.7 1.23 1.12 1.67c-.25-.26-.82.5-.9.65-.39.78.28.91.6 1.51s-.2 1-.46 1.48a3 3 0 00-.45 2.13c1 3.82 3.39 3.07 6.69 3.18 1.44 0 2.87.12 4.3.21 2.35.14 5.35 3.44 6.26 5.65-2 4.08-3.55 5.64-6.59 9.18-6.5 1.37-8.35 1.94-16.1-.35a118.65 118.65 0 00-11.18-6.84c-6.4-3.18-12.32-7-16.54-7.44-2.87-.33-7 1.26-9.87 1.25-5.36 0-5.51.9-8.72 2.24.21 1 1.45 1.36 3.49.28-1.36 2.69-1.67 3.07-1.55 3.5s.4.61.69.5L7.62 80.63 6 75.75 4.93 80.1l-3-.83 2.34 2.21L0 82.56l3.44.58-2.68 3.92 3.7-2.71.88 4.65 1.14-4.79 4.41 3.84L8 83l5.07.73-4.7-2.57L23.5 68.88a.35.35 0 000 .11c-.37 2 3.51-.06 5.27-.35 1.94-.33 4.16 1.66 7-.81 3.27-1.69 1.67-2.43 9.88 5.68a54 54 0 0010.59 8.62c3 1.74 9.18 3.12 12.69 3.58 1.21.16 2.32.27 3.37.34-2.24 3.12-3.36 5.89-1.55 9.33-.43.45-6.4 6.41-8.3 8.08-3 2.66-6 5.36-8.86 8.16-1.32 1.28-3.72 4.46-5.38 3.39a9 9 0 01-1.21-1.1 16.79 16.79 0 00-8-3.81c-.46 0-3.35.38-3.49.89-.22.85 3.45 1 3.75 1.16-6.32.55-7.13 5-4 4.71s4.17-2 7.53 1.53c.55.58 1.86 1.65 1.54 2.58-.49 1.46-4.8 1-3.91 2a4.32 4.32 0 002.1.46c2.51-.35 5.63 1.34 8.87-2.77 20.47-13 21-12.84 24.74-18.37a45.52 45.52 0 0110.68 21.14 8.8 8.8 0 01-5.6 3c-7.58.84-9.87.14-15.11 7.53 1.92.1 2.61.63 2.67 1.4-7.47 2.8-12.71 6.34-14.27 10.33-1.13 2.89 2.57 9.32 7.29 16.22-4.09 13.36-9.06 21.34-15.73 35.93-.48 1.07-1 2.12-1.56 3.17-.56-.22-11.49 26.51-7.59 28.59C39.47 230.93 53 214.2 53 206.23c0-1.5-1.2-2.52-.84-4 .65-2.65 2.69-4.38 4.43-6.32 5.44-6.06 11-12.76 15.18-20.07a63.93 63.93 0 014.57 7.16c3.55 7 7.57 13.91 9.53 21.62.42 1.69 3.47 9.55 6.11 9 1.33-.29 2.16-3.22 1.77-9.94 0-3.9-1-12.65-4.48-15.84-1-.94-2-.49-3.06-1.47-5.81-5.58-.6-13.32-8.9-25a52.26 52.26 0 012.3-8.36 21.32 21.32 0 013.29-1.36 7.33 7.33 0 017.59 2.17c1.74 2.17 1.64 5.75-.51 7.53 6.78 2.58 7.13-.82 8.14-2.19 3.14-4.25 14.27 2 11 7.31 8.28-1.87 9.81-7.12 9-10.15a7.23 7.23 0 01-.63-2.88c.24-1.55 2.08-2.38 3.64-2.2a16.28 16.28 0 014.37 1.67c2 .88 5.16 1.69 7.39 1.14.78-.19 5.26-4.39 3.64-4.84-4.05-1.12-6.48-5.3-7.51-9.36-.77-3-1-6.14-1.68-9.15a36.9 36.9 0 0019.52-.64l2.49-.78c17.83-5.61 26.95-18.02 22.65-31.98zM24.45 68.11l.89-.72-.77-1.82-2.52 2.24c.66-.83.89-1.77 1.62-2.38s3.34-.17 3.79 1c.38.92-1.17.85-3.01 1.68zm97.74-2l1-.32c6-1.86 10.74.22 12.4 5.58s-1.11 9.64-7.09 11.5l-10 3.1-2.5-8.28a9.31 9.31 0 016.19-11.54zm18.74 48.31l-3.8 1.19a9 9 0 01-11.3-6l-3-10.06 12.72-4c6.72-2.09 12.38.26 14.12 5.87s-1.51 10.8-8.74 13.04z"/>
</svg>